<?xml version="1.0" encoding="UTF-8"?>
<svg  viewBox="0 0 709 191" version="1.1" xmlns="http://www.w3.org/2000/svg" xmlns:xlink="http://www.w3.org/1999/xlink">
    <title>Logo</title>
    <g class="" id="Logo" stroke="none" stroke-width="1" fill="none" fill-rule="evenodd">
        <path d="M221.152,71.574 L230.47,71.574 C243.731,71.574 246.777,61.478 246.777,56.461 C246.777,48.277 241.582,41.348 230.172,41.348 L221.152,41.348 L221.152,71.574 Z M215.299,36.092 L231.128,36.092 C246.18,36.092 252.811,46.844 252.811,56.461 C252.811,66.914 244.628,76.83 231.188,76.83 L215.299,76.83 L215.299,36.092 Z" class="" id="Fill-1" fill="#1A1919"></path>
        <path d="M267.521,59.567 L280.185,59.567 L273.614,44.812 L267.521,59.567 Z M293.982,76.83 L288.009,76.83 L282.575,64.824 L265.251,64.824 L260.114,76.83 L254.141,76.83 L271.644,35.852 L275.764,35.852 L293.982,76.83 Z" class="" id="Fill-2" fill="#1A1919"></path>
        <polygon class="" id="Fill-3" fill="#1A1919" points="336.876 76.83 331.859 76.83 304.619 45.472 304.619 76.83 299.124 76.83 299.124 36.093 303.783 36.093 331.381 67.631 331.381 36.093 336.876 36.093"></polygon>
        <path d="M368.206,45.052 C364.742,41.767 361.395,40.812 358.645,40.812 C354.883,40.812 352.196,42.782 352.196,45.651 C352.196,53.475 369.819,53.356 369.819,66.317 C369.819,72.709 364.978,77.368 358.409,77.368 C353.987,77.368 350.405,76.174 346.999,73.606 L346.999,66.198 C349.985,70.021 353.748,72.113 357.75,72.113 C362.293,72.113 364.385,69.244 364.385,66.974 C364.385,58.553 346.762,57.596 346.762,46.427 C346.762,39.796 351.66,35.554 359.126,35.554 C362.231,35.554 365.34,36.511 368.206,38.422 L368.206,45.052 Z" class="" id="Fill-4" fill="#1A1919"></path>
        <polygon class="" id="Fill-5" fill="#1A1919" points="412.87 76.83 404.802 76.83 384.076 56.699 384.076 76.83 378.224 76.83 378.224 36.093 384.076 36.093 384.076 54.728 401.22 36.093 408.509 36.093 390.768 55.387"></polygon>
        <path d="M221.092,143.2554 L228.44,143.2554 C235.308,143.2554 237.161,139.8524 237.161,136.8064 C237.161,133.1024 234.293,130.4744 228.14,130.4744 L221.092,130.4744 L221.092,143.2554 Z M221.092,125.2154 L224.974,125.2154 C230.769,125.2154 233.577,123.0664 233.577,118.7064 C233.577,115.6594 231.844,113.0324 226.467,113.0324 L221.092,113.0324 L221.092,125.2154 Z M215.238,107.7734 L227.066,107.7734 C235.846,107.7734 239.61,113.0324 239.61,118.1674 C239.61,122.4094 237.639,125.1604 233.397,126.8894 L233.397,127.0104 C239.49,128.1434 243.194,132.1444 243.194,137.6414 C243.194,142.6574 239.43,148.5144 229.217,148.5144 L215.238,148.5144 L215.238,107.7734 Z" class="" id="Fill-6" fill="#1A1919"></path>
        <polygon class="" id="Fill-7" fill="#1A1919" points="253.089 148.5138 258.943 148.5138 258.943 107.7728 253.089 107.7728"></polygon>
        <polygon class="" id="Fill-8" fill="#1A1919" points="278.487 143.2554 295.172 143.2554 295.172 148.5144 272.633 148.5144 272.633 107.7734 278.487 107.7734"></polygon>
        <path d="M309.392,143.2554 L316.74,143.2554 C323.608,143.2554 325.461,139.8524 325.461,136.8064 C325.461,133.1024 322.593,130.4744 316.441,130.4744 L309.392,130.4744 L309.392,143.2554 Z M309.392,125.2154 L313.275,125.2154 C319.069,125.2154 321.877,123.0664 321.877,118.7064 C321.877,115.6594 320.144,113.0324 314.767,113.0324 L309.392,113.0324 L309.392,125.2154 Z M303.538,107.7734 L315.367,107.7734 C324.147,107.7734 327.91,113.0324 327.91,118.1674 C327.91,122.4094 325.938,125.1604 321.697,126.8894 L321.697,127.0104 C327.79,128.1434 331.494,132.1444 331.494,137.6414 C331.494,142.6574 327.73,148.5144 317.517,148.5144 L303.538,148.5144 L303.538,107.7734 Z" class="" id="Fill-9" fill="#1A1919"></path>
        <path d="M348.002,125.5752 L351.764,125.5752 C358.034,125.5752 359.824,122.3482 359.764,118.9452 C359.706,115.1212 357.436,112.7912 351.764,112.7912 L348.002,112.7912 L348.002,125.5752 Z M352.421,107.7742 C360.659,107.7742 365.795,112.1372 365.795,119.1822 C365.795,123.9012 363.344,127.4272 358.99,129.1582 C362.687,131.6082 364.958,135.3732 368.067,140.4512 C369.799,143.2552 370.816,144.6332 373.621,148.5142 L366.631,148.5142 L361.255,140.1532 C355.884,131.7882 353.435,130.8292 350.451,130.8292 L348.002,130.8292 L348.002,148.5142 L342.153,148.5142 L342.153,107.7742 L352.421,107.7742 Z" class="" id="Fill-10" fill="#1A1919"></path>
        <path d="M389.853,131.2495 L402.516,131.2495 L395.944,116.4975 L389.853,131.2495 Z M416.314,148.5145 L410.339,148.5145 L404.904,136.5075 L387.581,136.5075 L382.445,148.5145 L376.47,148.5145 L393.974,107.5365 L398.093,107.5365 L416.314,148.5145 Z" class="" id="Fill-11" fill="#1A1919"></path>
        <polygon class="" id="Fill-12" fill="#1A1919" points="460.193 148.5142 455.176 148.5142 427.938 117.1532 427.938 148.5142 422.442 148.5142 422.442 107.7732 427.103 107.7732 454.701 139.3142 454.701 107.7732 460.193 107.7732"></polygon>
        <path d="M504.43,116.8545 C499.41,113.9265 495.11,112.6115 490.392,112.6115 C481.076,112.6115 474.145,119.2445 474.145,128.2025 C474.145,137.3425 480.833,143.6745 490.629,143.6745 C495.228,143.6745 500.249,142.0625 504.848,139.0755 L504.848,145.4685 C500.844,147.5595 496.485,149.0505 490.093,149.0505 C474.801,149.0505 468.11,137.2835 468.11,128.7415 C468.11,116.3165 477.488,107.2355 490.451,107.2355 C494.634,107.2355 498.872,108.2505 504.43,110.5845 L504.43,116.8545 Z" class="" id="Fill-13" fill="#1A1919"></path>
        <polygon class="" id="Fill-14" fill="#1A1919" points="548.27 148.5142 542.415 148.5142 542.415 130.7722 519.598 130.7722 519.598 148.5142 513.743 148.5142 513.743 107.7732 519.598 107.7732 519.598 125.5152 542.415 125.5152 542.415 107.7732 548.27 107.7732"></polygon>
        <polygon class="" id="Fill-15" fill="#1A1919" points="582.284 113.0322 565.023 113.0322 565.023 125.3382 581.686 125.3382 581.686 130.5912 565.023 130.5912 565.023 143.2552 582.821 143.2552 582.821 148.5142 559.167 148.5142 559.167 107.7732 582.284 107.7732"></polygon>
        <path d="M599.737,125.5752 L603.5,125.5752 C609.77,125.5752 611.563,122.3482 611.503,118.9452 C611.445,115.1212 609.173,112.7912 603.5,112.7912 L599.737,112.7912 L599.737,125.5752 Z M604.155,107.7742 C612.399,107.7742 617.536,112.1372 617.536,119.1822 C617.536,123.9012 615.086,127.4272 610.728,129.1582 C614.43,131.6082 616.699,135.3732 619.807,140.4512 C621.54,143.2552 622.555,144.6332 625.361,148.5142 L618.375,148.5142 L612.997,140.1532 C607.62,131.7882 605.173,130.8292 602.185,130.8292 L599.737,130.8292 L599.737,148.5142 L593.88,148.5142 L593.88,107.7742 L604.155,107.7742 Z" class="" id="Fill-16" fill="#1A1919"></path>
        <path d="M643.169,99.6504 C643.169,101.4424 644.659,102.9364 646.453,102.9364 C648.247,102.9364 649.737,101.4424 649.737,99.6504 C649.737,97.8584 648.247,96.3644 646.453,96.3644 C644.659,96.3644 643.169,97.8584 643.169,99.6504 L643.169,99.6504 Z M652.007,99.6504 C652.007,102.6964 649.499,105.2054 646.453,105.2054 C643.405,105.2054 640.898,102.6964 640.898,99.6504 C640.898,96.6034 643.405,94.0954 646.453,94.0954 C649.499,94.0954 652.007,96.6034 652.007,99.6504 L652.007,99.6504 Z M639.884,131.2494 L652.547,131.2494 L645.974,116.4974 L639.884,131.2494 Z M666.344,148.5144 L660.369,148.5144 L654.935,136.5074 L637.612,136.5074 L632.476,148.5144 L626.502,148.5144 L644.004,107.5354 L648.124,107.5354 L666.344,148.5144 Z" class="" id="Fill-17" fill="#1A1919"></path>
        <path d="M677.005,143.2554 L686.321,143.2554 C699.583,143.2554 702.63,133.1604 702.63,128.1434 C702.63,119.9624 697.433,113.0324 686.023,113.0324 L677.005,113.0324 L677.005,143.2554 Z M671.15,107.7734 L686.982,107.7734 C702.031,107.7734 708.661,118.5264 708.661,128.1434 C708.661,138.5984 700.479,148.5144 687.039,148.5144 L671.15,148.5144 L671.15,107.7734 Z" class="" id="Fill-18" fill="#1A1919"></path>
        <path d="M151.678,65.167 L152.299,66.25 L143.954,80.609 C154.704,90.491 161.445,104.668 161.471,120.454 C161.42,150.329 137.261,174.519 107.355,174.571 C81.426,174.524 59.784,156.286 54.483,131.944 C53.675,128.24 53.236,124.398 53.229,120.454 C53.233,118.219 53.388,116.018 53.654,113.855 C56.947,87.065 79.711,66.378 107.355,66.329 C114.963,66.342 122.195,67.921 128.756,70.751 L131.409,66.184 L122.861,51.308 C117.868,50.193 112.685,49.587 107.355,49.587 C75.739,49.589 48.955,70.29 39.833,98.907 C37.667,105.699 36.485,112.938 36.485,120.454 C36.485,123.937 36.751,127.358 37.237,130.708 C42.216,164.973 71.709,191.305 107.355,191.311 C146.517,191.307 178.208,159.572 178.215,120.454 C178.215,98.08 167.853,78.151 151.678,65.167" class="" id="Fill-19" fill="#1A1919"></path>
        <path d="M151.678,65.167 L152.299,66.25 L143.954,80.609 C154.704,90.491 161.445,104.668 161.471,120.454 C161.42,150.329 137.261,174.519 107.355,174.571 C81.426,174.524 59.784,156.286 54.483,131.944 C53.675,128.24 53.236,124.398 53.229,120.454 C53.233,118.219 53.388,116.018 53.654,113.855 C56.947,87.065 79.711,66.378 107.355,66.329 C114.963,66.342 122.195,67.921 128.756,70.751 L131.409,66.184 L122.861,51.308 C117.868,50.193 112.685,49.587 107.355,49.587 C75.739,49.589 48.955,70.29 39.833,98.907 C37.667,105.699 36.485,112.938 36.485,120.454 C36.485,123.937 36.751,127.358 37.237,130.708 C42.216,164.973 71.709,191.305 107.355,191.311 C146.517,191.307 178.208,159.572 178.215,120.454 C178.215,98.08 167.853,78.151 151.678,65.167" class="" id="Fill-20" fill="#1A1919"></path>
        <path d="M151.678,65.167 L114.381,0.174 L38.251,1.42108547e-14 L-5.68434189e-14,65.842 L37.237,130.708 C36.751,127.358 36.486,123.937 36.485,120.454 C36.486,112.938 37.667,105.699 39.833,98.907 L20.887,65.888 L48.638,18.137 L103.88,18.274 L122.861,51.308 L131.409,66.184 L128.756,70.751 L103.658,113.968 L53.654,113.855 C53.388,116.018 53.233,118.219 53.229,120.454 C53.236,124.398 53.675,128.24 54.483,131.944 L114.049,132.07 L143.954,80.609 L152.299,66.25 L151.678,65.167 Z" class="" id="Fill-21" fill="#AB2430"></path>
    </g>
</svg>